<?xml version="1.0" standalone="no"?>
<!DOCTYPE svg PUBLIC "-//W3C//DTD SVG 20010904//EN"
 "http://www.w3.org/TR/2001/REC-SVG-20010904/DTD/svg10.dtd">
<svg version="1.0" xmlns="http://www.w3.org/2000/svg"
 width="1920.000000pt" height="235.000000pt" viewBox="0 0 1920.000000 235.000000"
 preserveAspectRatio="xMidYMid meet">

<g transform="translate(0.000000,235.000000) scale(0.100000,-0.100000)"
fill="#000000" stroke="none">
<path d="M81 2259 c-46 -48 -82 -92 -80 -97 2 -6 50 35 107 89 82 78 99 99 80
98 -15 -1 -52 -32 -107 -90z"/>
<path d="M163 2185 c-87 -91 -160 -173 -162 -182 -4 -19 142 113 284 256 81
83 87 91 63 91 -21 0 -58 -33 -185 -165z"/>
<path d="M252 2090 c-140 -143 -252 -266 -250 -274 2 -8 123 104 282 260 249
244 276 274 250 274 -25 0 -67 -39 -282 -260z"/>
<path d="M375 2048 l-300 -303 303 300 c166 165 302 301 302 302 0 8 -26 -18
-305 -299z"/>
<path d="M545 2038 l-310 -312 250 241 c302 291 393 383 380 383 -6 0 -150
-140 -320 -312z"/>
<path d="M581 1887 l-454 -462 461 460 c254 253 462 461 462 462 0 15 -76 -60
-469 -460z"/>
<path d="M658 1685 c-362 -365 -658 -671 -658 -680 0 -14 3 -14 28 4 15 10
302 291 637 623 336 332 639 629 673 661 l63 57 -43 -1 -43 -1 -657 -663z"/>
<path d="M1100 1618 l-723 -733 731 730 c403 401 732 731 732 732 0 16 -116
-98 -740 -729z"/>
<path d="M1110 1523 l-825 -827 833 824 c457 452 832 824 832 826 0 2 -3 4 -8
4 -4 0 -378 -372 -832 -827z"/>
<path d="M1630 1863 c-267 -269 -699 -704 -960 -967 -270 -273 -56 -65 498
484 534 529 972 965 972 966 0 24 -96 -68 -510 -483z"/>
<path d="M4550 1824 c778 -779 935 -924 1001 -924 47 0 96 -26 113 -59 26 -50
56 -71 98 -71 136 0 187 159 75 229 -48 29 -65 27 -138 -20 -86 -56 -110 -64
-154 -49 -83 27 -213 147 -846 777 -355 354 -652 643 -659 643 -8 0 221 -237
510 -526z"/>
<path d="M4756 1878 c604 -608 644 -653 644 -730 0 -60 30 -105 86 -130 60
-26 106 -18 151 27 27 27 33 41 33 74 0 50 -20 91 -56 120 -21 17 -41 21 -98
21 -70 0 -72 1 -141 52 -38 29 -293 274 -566 545 -272 271 -502 493 -509 493
-8 0 198 -213 456 -472z m823 -653 c31 -15 61 -69 61 -107 0 -84 -139 -115
-187 -42 -30 47 -2 132 52 155 29 12 43 11 74 -6z"/>
<path d="M5045 1860 l490 -490 185 0 c215 -1 262 -9 308 -53 55 -53 56 -60 20
-124 -53 -94 -43 -185 28 -257 47 -46 83 -60 156 -61 58 0 72 4 110 30 107 76
123 226 34 323 -33 37 -53 44 -156 52 -101 8 -137 21 -201 72 -47 38 -114 48
-329 48 l-165 0 -475 475 c-261 261 -479 475 -485 475 -5 0 211 -220 480 -490z
m1264 -630 c52 -38 101 -113 101 -156 0 -46 -55 -123 -109 -151 -84 -44 -170
-23 -225 55 -23 33 -29 51 -29 95 0 72 29 118 97 157 67 39 111 39 165 0z"/>
<path d="M6167 1180 c-70 -52 -81 -86 -53 -154 19 -46 52 -66 108 -66 38 0 54
6 82 30 68 60 64 114 -13 183 -49 44 -73 46 -124 7z"/>
<path d="M5195 2150 l200 -200 321 0 322 0 169 178 c160 166 201 222 167 222
-8 0 -14 -10 -14 -23 0 -16 -47 -69 -163 -185 l-163 -162 -320 0 -319 0 -185
185 c-102 102 -192 185 -200 185 -8 0 75 -90 185 -200z"/>
<path d="M5305 2230 l120 -120 305 0 305 0 120 120 c66 66 113 120 105 120 -9
0 -65 -49 -125 -110 l-110 -110 -299 0 -300 0 -110 110 c-60 61 -115 110 -120
110 -6 0 43 -54 109 -120z"/>
<path d="M13292 2337 c-25 -29 -37 -105 -24 -152 23 -87 19 -100 -59 -181 -98
-100 -117 -107 -307 -102 l-150 3 -52 49 c-50 47 -53 48 -102 44 -56 -6 -94
-30 -122 -77 -53 -91 56 -205 165 -172 31 9 46 22 67 57 34 56 60 64 219 64
182 0 209 8 298 91 41 37 85 71 98 74 13 4 56 -3 95 -15 l70 -21 51 22 c111
47 167 157 139 269 -12 48 -18 55 -41 58 -31 4 -32 1 -13 -36 20 -41 28 -109
16 -151 -23 -85 -149 -148 -223 -110 -102 52 -142 185 -83 274 16 24 16 25 -8
25 -13 0 -28 -6 -34 -13z m-635 -383 c27 -17 48 -82 39 -118 -8 -33 -60 -66
-103 -66 -39 0 -89 40 -98 79 -9 43 18 99 57 116 35 16 70 12 105 -11z"/>
<path d="M14515 2230 l-120 -120 -150 0 c-176 1 -216 8 -259 48 -42 40 -68 52
-112 52 -29 0 -44 -8 -74 -38 -70 -69 -61 -152 22 -212 33 -24 50 -30 72 -26
39 8 94 51 119 94 l21 35 180 -6 181 -6 150 149 c140 140 148 150 120 150 -25
0 -50 -19 -150 -120z m-561 -76 c20 -21 26 -36 26 -71 0 -44 -13 -82 -34 -95
-6 -4 -33 -8 -61 -8 -27 0 -55 4 -61 8 -20 13 -34 50 -34 92 0 88 103 134 164
74z"/>
<path d="M14675 2150 l-200 -200 -145 0 -145 0 -435 -435 -435 -435 -435 0
-435 0 -162 -162 -163 -163 0 -377 c0 -344 7 -442 24 -341 3 21 6 187 6 368
l1 330 153 148 154 147 419 0 418 0 445 445 445 445 160 0 160 0 130 133 c292
297 292 297 265 297 -19 0 -72 -47 -225 -200z"/>
<path d="M14865 2100 l-250 -250 -160 0 -159 0 -451 -450 -450 -450 -420 0
-420 0 -162 -162 -161 -163 -5 -312 -4 -313 34 0 33 0 -5 53 c-3 28 -10 169
-15 312 l-10 260 147 147 148 148 431 0 430 0 451 452 450 451 129 -15 129
-16 280 279 c154 153 275 279 270 279 -6 0 -123 -112 -260 -250z"/>
<path d="M15015 2039 c-171 -170 -317 -314 -325 -318 -8 -4 -69 0 -135 9
l-120 18 -520 -519 -520 -518 -314 -15 -314 -15 -120 -118 c-136 -135 -156
-169 -157 -263 0 -84 -13 -129 -45 -155 -28 -22 -42 -76 -31 -119 6 -26 7 -26
116 -26 l110 0 0 53 c-1 59 -13 86 -52 117 -45 35 -59 117 -36 208 10 40 29
65 126 164 l115 118 291 0 291 0 525 524 525 525 140 -15 139 -15 336 336
c275 275 330 335 310 335 -20 0 -93 -68 -335 -311z"/>
<path d="M15295 2059 c-431 -432 -956 -940 -1048 -1014 -54 -43 -98 -70 -132
-80 -73 -21 -155 -87 -381 -308 l-199 -193 -159 9 -160 8 -238 -238 c-196
-196 -235 -239 -217 -241 17 -3 69 43 233 207 l211 211 175 0 175 0 195 196
c200 201 327 307 378 319 47 10 171 117 477 413 426 412 1012 1002 995 1002
-8 0 -146 -131 -305 -291z"/>
<path d="M15569 1334 l-1017 -1017 -133 11 -134 11 -168 -167 c-92 -92 -162
-169 -156 -171 6 -2 77 62 158 143 l146 146 145 0 145 0 1030 1030 c566 567
1023 1030 1015 1030 -8 0 -472 -457 -1031 -1016z"/>
<path d="M15790 1313 c-569 -570 -958 -964 -865 -875 329 313 1930 1911 1915
1912 -8 0 -481 -467 -1050 -1037z"/>
<path d="M15810 1175 c-947 -947 -1170 -1175 -1150 -1175 20 0 267 242 1200
1175 947 947 1170 1175 1150 1175 -20 0 -267 -242 -1200 -1175z"/>
<path d="M16871 1476 c-872 -872 -874 -874 -910 -869 -20 2 -124 10 -231 18
l-195 14 -318 -317 c-259 -259 -313 -318 -296 -320 17 -3 84 58 313 287 l291
291 250 0 250 0 885 885 c715 715 880 885 860 885 -20 0 -206 -181 -899 -874z"/>
<path d="M17015 1440 l-910 -910 -235 0 -235 0 -265 -265 c-146 -146 -258
-265 -250 -265 8 0 128 113 265 250 l250 250 235 0 235 0 925 925 c509 509
918 925 910 925 -8 0 -425 -410 -925 -910z"/>
<path d="M17163 1398 l-951 -951 -248 17 -248 17 -238 -238 c-196 -196 -235
-239 -217 -241 17 -3 70 44 240 214 l217 217 259 -7 258 -6 965 965 c778 778
960 965 940 965 -20 0 -222 -197 -977 -952z"/>
<path d="M17305 1359 l-990 -991 -260 7 -260 6 -190 -190 c-176 -177 -188
-191 -160 -191 26 0 56 25 200 170 l170 170 261 0 261 0 992 1005 c546 553
986 1005 979 1005 -7 0 -459 -446 -1003 -991z"/>
<path d="M17455 1320 l-1030 -1030 -265 0 -265 0 -145 -145 c-123 -123 -141
-145 -120 -145 19 0 59 34 160 135 l135 135 265 0 265 0 1040 1040 c838 838
1035 1040 1015 1040 -20 0 -238 -213 -1055 -1030z"/>
<path d="M17741 1245 l-1108 -1105 -273 0 -272 0 -72 -70 c-64 -63 -68 -70
-46 -70 18 0 42 17 80 55 l54 55 281 0 280 0 1121 1120 c964 964 1116 1120
1092 1120 -23 0 -196 -168 -1137 -1105z"/>
<path d="M17891 1205 l-1147 -1145 -275 0 -275 0 -29 -30 -29 -30 26 0 c14 0
31 7 38 15 11 13 55 15 289 15 l276 0 1110 1112 c1254 1257 1206 1208 1181
1208 -11 0 -478 -459 -1165 -1145z"/>
<path d="M13395 2317 c-56 -48 -41 -155 28 -197 41 -25 72 -25 108 1 65 46 80
140 30 190 -25 25 -37 29 -85 29 -43 0 -61 -5 -81 -23z"/>
<path d="M18730 1838 c-1613 -1590 -1856 -1833 -1831 -1836 20 -3 121 93 623
595 721 719 1683 1693 1674 1693 -4 0 -213 -204 -466 -452z"/>
<path d="M8925 2151 c-35 -15 -56 -47 -64 -99 -14 -90 -43 -124 -485 -569
l-291 -293 -314 0 -314 0 -531 -528 c-292 -290 -566 -556 -609 -592 -77 -64
-82 -81 -20 -65 16 4 247 226 603 581 l577 574 314 0 314 0 190 191 c272 273
529 515 583 550 35 22 58 29 98 29 62 0 99 25 113 75 9 33 1 85 -17 111 -27
38 -97 55 -147 35z"/>
<path d="M8374 2124 c-55 -20 -90 -59 -112 -124 -16 -47 -25 -58 -63 -78 -65
-35 -116 -79 -300 -259 l-166 -163 -234 0 -234 0 -575 -575 -575 -575 -282 0
-282 0 -841 841 -842 842 -486 -12 c-268 -6 -623 -14 -789 -17 l-301 -7 -659
-660 c-362 -364 -563 -570 -448 -459 116 110 412 403 660 651 l450 451 785 0
785 0 830 -830 830 -830 290 0 291 0 580 581 581 581 238 -17 238 -16 201 199
c111 109 215 208 233 220 47 33 69 29 77 -13 17 -87 191 -164 274 -121 36 19
106 93 127 135 36 72 1 175 -81 237 -29 23 -48 29 -98 31 -36 1 -78 -4 -102
-13z m161 -37 c54 -30 105 -107 105 -159 0 -93 -85 -171 -185 -171 -100 0
-175 74 -175 172 0 137 139 224 255 158z"/>
<path d="M8367 2024 c-55 -54 -39 -144 32 -191 102 -69 223 38 166 147 -36 69
-148 94 -198 44z"/>
<path d="M3040 2099 c-300 -4 -604 -11 -677 -14 l-132 -7 -1033 -1036 c-778
-780 -1028 -1037 -1014 -1040 21 -4 56 30 1336 1305 l745 742 650 10 c358 6
731 13 830 17 l180 5 800 -800 800 -801 294 0 295 0 540 538 c298 296 563 552
590 570 43 28 58 32 117 32 58 0 72 4 98 25 60 51 65 140 10 194 -56 57 -131
51 -189 -15 -26 -30 -45 -82 -40 -109 11 -54 -67 -141 -629 -707 l-504 -508
-286 0 -286 0 -805 805 -805 805 -170 -2 c-93 0 -415 -5 -715 -9z m4417 -293
c45 -53 20 -132 -51 -156 -63 -20 -112 19 -123 99 -4 29 -1 48 12 67 16 25 21
26 77 22 51 -4 65 -9 85 -32z"/>
<path d="M10003 2009 c-123 -22 -188 -115 -169 -241 11 -70 45 -119 104 -151
28 -16 57 -37 63 -48 6 -11 13 -104 16 -205 l6 -185 -589 -590 c-477 -477
-584 -589 -564 -589 20 0 149 124 606 583 l582 582 6 157 c8 212 14 233 93
320 36 39 71 85 79 104 28 67 12 132 -49 194 -62 63 -111 82 -184 69z m131
-63 c59 -35 90 -93 84 -161 -8 -95 -76 -155 -175 -155 -135 0 -219 126 -164
245 47 102 152 131 255 71z"/>
<path d="M9963 1908 c-56 -27 -68 -138 -20 -186 34 -33 116 -42 162 -18 63 34
87 124 44 167 -44 44 -134 62 -186 37z"/>
<path d="M15370 1921 c-55 -18 -91 -43 -116 -81 -27 -40 -27 -42 -20 -163 l6
-122 -424 -424 -424 -424 -132 12 -132 13 -237 -235 c-133 -132 -254 -243
-276 -254 -84 -42 -191 -36 -299 16 -58 28 -63 28 -96 15 -65 -28 -100 -79
-100 -146 0 -34 -30 -93 -59 -115 -11 -8 -12 -12 -3 -13 7 0 26 10 41 21 31
23 57 22 136 -1 62 -19 110 5 136 68 24 57 37 66 136 88 98 21 140 54 399 307
l212 207 143 0 143 0 410 408 c264 262 425 415 450 426 32 15 43 16 65 6 47
-22 95 -30 132 -20 92 25 179 128 179 212 0 73 -47 150 -112 184 -33 17 -125
26 -158 15z m102 -31 c51 -15 94 -53 123 -111 29 -55 31 -79 11 -117 -20 -39
-109 -120 -141 -128 -68 -17 -181 62 -205 143 -24 79 31 178 115 208 49 17 51
17 97 5z m-2142 -1680 c30 -30 28 -103 -4 -135 -66 -66 -157 -30 -172 67 -5
30 -2 41 19 62 22 22 35 26 82 26 42 0 60 -5 75 -20z"/>
<path d="M15383 1838 c-102 -27 -96 -180 10 -231 47 -23 76 -17 123 26 28 26
36 40 36 68 0 90 -85 159 -169 137z"/>
<path d="M1375 953 c-696 -694 -945 -947 -932 -950 13 -3 215 190 725 696 389
385 806 799 927 920 l220 221 757 0 756 0 864 -869 863 -869 315 15 315 15
580 579 580 579 234 0 234 0 103 100 c57 54 117 106 134 115 27 14 33 14 66 0
49 -20 80 -19 120 6 47 29 64 57 64 104 0 87 -66 137 -151 115 -63 -17 -99
-58 -99 -113 0 -54 -25 -90 -136 -198 l-79 -77 -265 -16 -265 -16 -575 -575
-575 -575 -311 0 -311 0 -859 853 -859 854 -690 17 c-379 9 -715 16 -745 16
l-55 0 -950 -947z"/>
<path d="M9104 1792 c-21 -16 -45 -36 -53 -46 -25 -30 -73 -48 -149 -57 -51
-6 -88 -17 -120 -35 -26 -15 -182 -161 -347 -325 l-300 -297 -180 8 c-99 5
-229 12 -290 15 l-110 6 -530 -530 c-291 -292 -523 -531 -515 -531 8 0 242
228 520 506 l505 506 298 -7 299 -7 311 309 c330 328 363 353 448 353 71 0
112 -17 173 -70 85 -75 115 -77 181 -13 48 46 66 89 53 123 -18 49 -102 120
-141 120 -8 0 -32 -13 -53 -28z m100 -42 c73 -27 87 -91 33 -145 -60 -60 -116
-54 -153 17 -20 38 -13 106 12 125 21 15 72 17 108 3z"/>
<path d="M2915 1754 l-570 -14 -868 -868 c-701 -701 -863 -868 -846 -870 18
-3 154 127 663 635 353 351 740 736 861 855 l220 217 704 7 703 7 727 -725
c909 -908 1003 -998 1045 -998 30 0 29 2 -49 72 -44 39 -447 437 -895 885
l-815 813 -155 -1 c-85 -1 -411 -8 -725 -15z"/>
<path d="M9584 1739 c-10 -12 -42 -32 -71 -45 -75 -34 -170 -120 -610 -557
l-391 -389 -319 -15 c-175 -8 -332 -16 -348 -19 -24 -3 -104 -78 -385 -359
-195 -195 -347 -355 -338 -355 9 0 168 154 353 342 l337 342 351 8 352 8 355
353 c417 415 587 577 603 577 7 0 35 -23 62 -51 66 -68 103 -84 149 -65 45 19
90 79 90 121 0 91 -135 165 -190 104z"/>
<path d="M8802 1594 c-48 -24 -80 -68 -88 -120 -10 -66 -68 -139 -297 -371
l-200 -203 -276 0 -276 0 -450 -451 c-248 -248 -445 -450 -438 -448 6 2 203
192 436 422 l425 417 283 0 282 0 146 143 c226 222 328 314 376 342 39 23 48
25 82 16 26 -7 50 -7 75 -1 40 11 94 66 104 105 12 50 -63 145 -126 159 -14 4
-39 -1 -58 -10z m86 -30 c35 -21 61 -56 68 -93 5 -25 1 -36 -24 -61 -26 -25
-38 -30 -80 -30 -53 0 -72 13 -91 62 -14 36 3 92 36 118 31 24 56 25 91 4z"/>
<path d="M1690 745 c-669 -669 -742 -745 -715 -745 26 0 117 87 755 725 l725
725 615 0 615 0 725 -725 c586 -586 730 -725 751 -725 21 0 -102 127 -708 733
l-734 732 -127 6 c-70 4 -359 9 -642 13 l-515 7 -745 -746z"/>
<path d="M18449 740 c-409 -406 -737 -739 -729 -739 16 -1 1487 1465 1479
1473 -3 3 -340 -327 -750 -734z"/>
<path d="M9536 1390 c-102 -31 -130 -173 -46 -237 8 -6 32 -15 53 -18 21 -4
41 -14 44 -22 13 -34 -17 -167 -50 -222 -33 -56 -217 -250 -621 -658 -192
-194 -227 -233 -206 -233 20 0 121 96 468 443 l442 442 0 80 c1 100 14 158 46
200 55 72 38 192 -30 220 -39 17 -57 17 -100 5z m100 -54 c39 -39 44 -75 15
-122 -10 -17 -33 -37 -51 -44 -96 -40 -176 114 -93 180 40 32 88 27 129 -14z"/>
<path d="M1810 675 c-547 -547 -670 -675 -650 -675 20 0 164 139 685 660 l660
660 575 0 575 0 660 -660 c580 -580 664 -660 690 -660 27 0 -38 68 -645 675
l-675 675 -600 0 -600 0 -675 -675z"/>
<path d="M11386 1295 c-50 -18 -97 -65 -134 -135 -38 -71 -60 -79 -227 -79
l-130 -1 -153 -153 -152 -152 0 -265 0 -265 -96 -95 c-96 -96 -137 -150 -112
-150 7 0 24 19 38 42 14 22 63 76 109 119 l84 78 19 283 19 283 107 107 c58
60 121 115 138 123 24 11 68 15 176 15 78 0 149 -4 156 -8 7 -5 22 -28 35 -53
52 -103 233 -132 328 -52 94 80 90 226 -9 315 -61 55 -124 69 -196 43z m158
-49 c103 -43 107 -225 6 -293 -25 -18 -47 -23 -94 -23 -114 0 -171 55 -171
165 0 110 56 165 168 165 32 0 73 -6 91 -14z"/>
<path d="M11382 1194 c-28 -19 -52 -65 -52 -99 0 -34 24 -80 52 -99 13 -9 43
-16 70 -16 39 0 54 6 80 29 30 27 33 35 33 86 0 51 -3 59 -33 86 -26 23 -41
29 -80 29 -27 0 -57 -7 -70 -16z"/>
<path d="M18545 650 c-358 -358 -643 -650 -635 -650 14 0 148 133 1000 992
162 164 292 299 289 302 -3 3 -297 -287 -654 -644z"/>
<path d="M9281 1146 c-33 -18 -50 -53 -51 -103 0 -37 6 -50 50 -98 28 -30 50
-62 50 -69 0 -27 -86 -124 -339 -378 l-255 -258 -421 0 -420 0 -120 -120 c-66
-66 -113 -120 -105 -120 9 0 62 47 120 105 l105 105 436 0 436 0 249 253 c255
259 356 373 369 417 4 14 25 41 46 61 34 31 39 42 39 80 0 26 -8 57 -20 77
-33 54 -116 78 -169 48z"/>
<path d="M10335 1141 c-50 -22 -109 -86 -125 -135 -18 -54 -5 -116 38 -181 25
-38 50 -62 78 -76 23 -11 45 -27 48 -35 12 -32 6 -234 -8 -269 -8 -19 -55 -77
-104 -129 -49 -52 -97 -111 -106 -131 -10 -20 -20 -70 -23 -111 -5 -63 -4 -74
10 -74 11 0 18 12 22 35 3 19 8 52 11 72 9 56 37 102 99 163 31 30 72 77 92
103 35 48 36 50 45 185 4 74 11 138 13 141 31 30 49 -266 21 -333 -8 -19 -62
-84 -119 -144 -76 -79 -109 -122 -116 -149 -16 -56 -14 -73 9 -73 14 0 21 9
26 36 8 45 54 106 159 214 l84 85 3 190 c4 208 4 209 69 283 47 54 63 100 57
163 -7 64 -48 123 -113 160 -59 34 -111 37 -170 10z m122 -22 c34 -13 67 -42
104 -93 53 -72 34 -149 -54 -219 -52 -42 -134 -48 -192 -15 -102 60 -114 206
-24 282 62 52 112 66 166 45z"/>
<path d="M10348 1047 c-58 -45 -72 -75 -58 -128 22 -81 89 -113 166 -80 47 21
84 70 84 110 0 30 -98 131 -128 131 -11 0 -40 -15 -64 -33z"/>
<path d="M18635 558 c-306 -304 -552 -554 -545 -556 7 -3 246 229 532 514 464
464 590 594 575 594 -2 0 -255 -248 -562 -552z"/>
<path d="M2573 1020 c-99 -5 -139 -11 -158 -24 -15 -10 -25 -19 -23 -21 1 -2
107 1 233 7 l230 10 193 -197 c201 -204 243 -235 316 -235 39 0 125 57 170
113 28 35 31 46 31 107 0 61 -3 72 -31 107 -46 57 -131 113 -171 113 -74 0
-152 -56 -202 -144 -16 -29 -37 -56 -45 -59 -18 -7 -51 18 -161 123 -44 43
-89 82 -101 88 -31 16 -132 21 -281 12z m894 -96 c46 -33 75 -100 70 -162 -5
-64 -28 -99 -88 -130 -36 -19 -56 -23 -111 -20 -58 3 -72 8 -97 32 -42 40 -61
85 -61 144 0 100 82 166 197 160 43 -3 72 -10 90 -24z"/>
<path d="M3304 890 c-28 -11 -61 -54 -69 -89 -14 -64 51 -141 118 -141 40 0
92 24 111 51 18 26 21 84 6 123 -19 52 -106 81 -166 56z"/>
<path d="M18741 455 c-412 -410 -450 -450 -425 -453 24 -3 59 28 296 265 409
408 590 599 586 620 -3 13 -127 -105 -457 -432z"/>
<path d="M2087 706 c-226 -217 -716 -709 -700 -705 11 4 894 879 886 879 -2 0
-85 -78 -186 -174z"/>
<path d="M1990 435 c-239 -239 -430 -435 -425 -435 5 0 194 184 420 410 l410
410 185 15 184 15 221 -220 c238 -236 271 -260 360 -259 79 0 117 20 217 113
52 48 111 98 132 112 80 55 138 50 174 -15 26 -47 73 -71 137 -71 57 0 80 12
100 50 33 64 11 156 -45 185 -50 26 -112 20 -156 -16 -49 -40 -111 -68 -147
-69 -47 0 -99 -34 -206 -134 -122 -114 -148 -130 -208 -123 -66 7 -131 57
-353 274 l-198 193 -183 0 -184 0 -435 -435z m2073 265 c39 -44 37 -92 -7
-136 -19 -19 -44 -34 -55 -34 -35 0 -79 28 -96 60 -56 109 76 201 158 110z"/>
<path d="M11355 756 c-16 -7 -38 -22 -47 -32 -25 -28 -50 -92 -48 -123 4 -57
-2 -70 -60 -136 -61 -69 -80 -111 -80 -178 0 -59 -27 -104 -119 -199 -82 -86
-83 -88 -54 -88 25 0 42 12 88 61 87 95 104 125 114 208 17 136 92 213 225
232 76 10 107 27 136 74 27 43 25 84 -4 124 -45 60 -98 81 -151 57z m84 -31
c34 -17 41 -32 41 -92 0 -84 -82 -131 -144 -82 -26 20 -56 68 -56 88 0 16 61
82 84 91 30 13 44 12 75 -5z"/>
<path d="M10082 651 c-53 -39 -55 -44 -63 -123 -7 -79 -23 -106 -136 -227
l-75 -81 9 -107 c7 -91 11 -108 26 -111 15 -3 17 6 17 90 0 118 16 152 103
235 76 73 105 86 167 78 57 -7 108 18 132 66 36 69 18 132 -52 182 -49 35 -77
34 -128 -2z m145 -44 c8 -8 17 -32 20 -54 14 -109 -100 -160 -176 -79 -40 42
-22 123 32 146 30 13 106 5 124 -13z"/>
<path d="M18514 326 c-181 -179 -324 -325 -319 -325 6 -1 156 145 335 324 179
179 322 325 319 325 -3 0 -154 -146 -335 -324z"/>
<path d="M18765 308 l-310 -313 313 310 c171 170 312 311 312 312 0 8 -27 -19
-315 -309z"/>
<path d="M8608 600 c-41 -12 -71 -37 -88 -72 -10 -23 -24 -35 -45 -39 -17 -4
-170 -7 -340 -8 l-310 -1 -240 -240 c-199 -199 -236 -240 -215 -240 19 0 77
52 250 225 l225 225 270 0 c319 0 380 -8 452 -55 70 -47 111 -47 161 -1 31 29
37 40 36 74 -2 52 -38 111 -80 128 -37 16 -38 16 -76 4z"/>
<path d="M19005 190 c-159 -159 -186 -190 -165 -190 36 0 363 327 358 359 -2
18 -36 -11 -193 -169z"/>
<path d="M1975 161 c-175 -176 -191 -217 -26 -65 189 173 221 194 302 194 80
0 122 -27 258 -165 69 -69 128 -125 133 -125 4 0 8 11 8 24 0 17 -30 53 -112
131 -162 156 -169 159 -297 163 l-106 3 -160 -160z"/>
<path d="M2902 207 c-41 -28 -76 -98 -67 -135 10 -42 33 -72 56 -72 20 0 20 1
-5 31 -29 34 -32 55 -14 94 24 54 128 75 168 35 25 -25 27 -105 4 -138 -13
-19 -13 -22 0 -22 8 0 32 11 52 25 47 32 74 31 134 -1 26 -14 58 -24 71 -22
21 3 16 9 -41 49 -63 45 -74 50 -131 63 -14 3 -31 17 -37 31 -15 32 -98 85
-131 84 -15 0 -41 -10 -59 -22z"/>
<path d="M11395 199 c-11 -6 -32 -25 -47 -43 -25 -29 -30 -31 -89 -29 -71 3
-107 -14 -189 -87 -44 -39 -45 -40 -17 -40 15 0 51 15 80 34 90 60 146 60 214
1 39 -33 45 -35 116 -35 81 0 76 -4 101 74 10 30 -12 93 -41 115 -28 23 -94
28 -128 10z"/>
<path d="M14645 185 c-16 -14 -25 -25 -19 -25 6 0 21 11 34 25 30 32 24 31
-15 0z"/>
<path d="M4175 149 c-17 -4 -54 -29 -83 -54 -40 -33 -72 -50 -125 -66 -40 -11
-76 -22 -82 -24 -5 -2 24 -4 66 -4 66 -1 81 2 113 24 20 14 52 36 72 50 52 35
97 45 253 55 l136 9 70 -70 c39 -38 77 -69 85 -69 8 0 -21 36 -65 80 l-80 80
-165 -1 c-91 0 -179 -5 -195 -10z"/>
<path d="M14405 147 c-16 -7 -42 -20 -56 -30 -34 -23 -84 -37 -132 -37 -49 0
-73 -13 -92 -50 l-16 -30 116 0 c94 0 115 3 115 15 0 59 61 103 161 116 38 5
78 13 87 18 25 15 -145 13 -183 -2z"/>
<path d="M5866 70 c-16 -5 -39 -19 -52 -31 -46 -43 -21 -55 28 -14 16 14 42
25 58 25 16 0 42 -11 58 -25 17 -14 38 -25 48 -25 15 0 9 10 -23 40 -43 41
-63 46 -117 30z"/>
</g>
</svg>
